<svg xmlns="http://www.w3.org/2000/svg" width="800" height="480" viewBox="0 0 800 480">
  <rect width="800" height="480" fill="#0f172a"/>
  <rect x="16" y="16" width="768" height="48" rx="8" fill="#1e293b"/>
  <text x="24" y="46" fill="#f1f5f9" font-family="system-ui" font-size="16" font-weight="600">🛡️ SERP Defense Engine</text>
  <text x="300" y="46" fill="#94a3b8" font-family="system-ui" font-size="12">SERP itibar savunma ve tehdit analizi</text>
  <rect x="16" y="72" width="768" height="32" rx="6" fill="#1e293b"/>
  <text x="32" y="92" fill="#94a3b8" font-family="system-ui" font-size="11" font-weight="500">Dashboard  Fortress  Attack Surface  Keyword Defense  Reputation  Crisis  Reports</text>
  <rect x="16" y="112" width="380" height="120" rx="8" fill="#1e293b"/>
  <text x="32" y="134" fill="#f1f5f9" font-family="system-ui" font-size="13" font-weight="600">Threat Level</text>
  <rect x="32" y="150" width="100" height="56" rx="6" fill="#334155"/>
  <text x="44" y="170" fill="#94a3b8" font-family="system-ui" font-size="10">Threats</text>
  <text x="44" y="192" fill="#eab308" font-family="system-ui" font-size="18" font-weight="700">MEDIUM</text>
  <rect x="144" y="150" width="100" height="56" rx="6" fill="#334155"/>
  <text x="156" y="170" fill="#94a3b8" font-family="system-ui" font-size="10">Fortresses</text>
  <text x="156" y="192" fill="#22c55e" font-family="system-ui" font-size="18" font-weight="700">4</text>
  <rect x="256" y="150" width="100" height="56" rx="6" fill="#334155"/>
  <text x="268" y="170" fill="#94a3b8" font-family="system-ui" font-size="10">Defended</text>
  <text x="268" y="192" fill="#f1f5f9" font-family="system-ui" font-size="18" font-weight="700">12</text>
  <rect x="408" y="112" width="376" height="120" rx="8" fill="#1e293b"/>
  <text x="424" y="134" fill="#f1f5f9" font-family="system-ui" font-size="13" font-weight="600">Attack Surface</text>
  <line x1="424" y1="148" x2="768" y2="148" stroke="#334155" stroke-width="1"/>
  <rect x="440" y="162" width="160" height="56" rx="6" fill="#eab308" opacity="0.15"/>
  <text x="452" y="182" fill="#eab308" font-family="system-ui" font-size="10">Competitor Attacks</text>
  <text x="452" y="204" fill="#eab308" font-family="system-ui" font-size="16" font-weight="700">3</text>
  <rect x="612" y="162" width="160" height="56" rx="6" fill="#22c55e" opacity="0.15"/>
  <text x="624" y="182" fill="#22c55e" font-family="system-ui" font-size="10">Defended Keywords</text>
  <text x="624" y="204" fill="#22c55e" font-family="system-ui" font-size="16" font-weight="700">8</text>
  <rect x="16" y="244" width="380" height="120" rx="8" fill="#1e293b"/>
  <text x="32" y="266" fill="#f1f5f9" font-family="system-ui" font-size="13" font-weight="600">Fortress List</text>
  <line x1="32" y1="278" x2="380" y2="278" stroke="#334155" stroke-width="1"/>
  <text x="32" y="298" fill="#94a3b8" font-family="system-ui" font-size="10">Keyword                    Status      Score</text>
  <text x="32" y="320" fill="#e2e8f0" font-family="monospace" font-size="10">kuşadası gece hayatı       active      85</text>
  <text x="32" y="342" fill="#e2e8f0" font-family="monospace" font-size="10">izmir gece hayatı          active      72</text>
  <rect x="408" y="244" width="376" height="120" rx="8" fill="#1e293b"/>
  <text x="424" y="266" fill="#f1f5f9" font-family="system-ui" font-size="13" font-weight="600">Recent Alerts</text>
  <line x1="424" y1="278" x2="768" y2="278" stroke="#334155" stroke-width="1"/>
  <text x="424" y="300" fill="#eab308" font-family="system-ui" font-size="11">⚠ Rakip yeni içerik yayınladı: "kuşadası gece"</text>
  <text x="424" y="324" fill="#22c55e" font-family="system-ui" font-size="11">✅ Fortress güncellendi: "izmir gece hayatı"</text>
  <rect x="16" y="376" width="768" height="88" rx="8" fill="#1e293b"/>
  <text x="32" y="398" fill="#f1f5f9" font-family="system-ui" font-size="13" font-weight="600">Quick Actions</text>
  <rect x="32" y="416" width="160" height="32" rx="6" fill="#3b82f6"/>
  <text x="44" y="436" fill="#fff" font-family="system-ui" font-size="11">Create Fortress</text>
  <rect x="204" y="416" width="160" height="32" rx="6" fill="#ef4444"/>
  <text x="216" y="436" fill="#fff" font-family="system-ui" font-size="11">Activate Crisis</text>
</svg>
